<svg xmlns="http://www.w3.org/2000/svg" xmlns:xlink="http://www.w3.org/1999/xlink" version="1.1" id="Layer_1" x="0px" y="0px" width="90px" height="90px" viewBox="0 0 90 90" enable-background="new 0 0 90 90" xml:space="preserve">
<path d="M84.285,34.61H5.716c-1.94,0-3.528,1.588-3.528,3.529v13.722c0,1.941,1.588,3.528,3.528,3.528h78.569  c1.939,0,3.527-1.587,3.527-3.528V38.139C87.813,36.198,86.225,34.61,84.285,34.61z M5.942,37.209c0.484,0,0.875,0.392,0.875,0.875  c0,0.483-0.391,0.875-0.875,0.875c-0.484,0-0.875-0.393-0.875-0.875C5.067,37.601,5.458,37.209,5.942,37.209z M5.942,39.679  c0.484,0,0.875,0.392,0.875,0.875c0,0.484-0.391,0.875-0.875,0.875c-0.484,0-0.875-0.392-0.875-0.875  C5.067,40.071,5.458,39.679,5.942,39.679z M84.279,53.365H5.597c-0.292,0-0.53-0.142-0.53-0.314c0-0.172,0.238-0.313,0.53-0.313  h78.683c0.289,0,0.529,0.142,0.529,0.313C84.809,53.224,84.568,53.365,84.279,53.365z M84.279,51.6H5.597  c-0.292,0-0.53-0.141-0.53-0.313s0.238-0.313,0.53-0.313h78.683c0.289,0,0.529,0.14,0.529,0.313S84.568,51.6,84.279,51.6z   M84.279,49.834H5.597c-0.292,0-0.53-0.14-0.53-0.312c0-0.173,0.238-0.313,0.53-0.313h78.683c0.289,0,0.529,0.141,0.529,0.313  C84.809,49.694,84.568,49.834,84.279,49.834z"/>
</svg>