<svg xmlns="http://www.w3.org/2000/svg" xmlns:xlink="http://www.w3.org/1999/xlink" version="1.1" id="Calque_1" x="0px" y="0px" width="100px" height="100px" viewBox="0 0 100 100" enable-background="new 0 0 100 100" xml:space="preserve">
<path d="M92.021,39.068H7.978c-3.391,0-6.149,2.759-6.149,6.149v9.566c0,3.392,2.758,6.148,6.149,6.148h84.043  c3.391,0,6.149-2.757,6.149-6.148v-9.566C98.171,41.827,95.412,39.068,92.021,39.068z M7.978,41.118h84.043  c1.687,0,3.135,1.021,3.762,2.475H4.215C4.845,42.139,6.292,41.118,7.978,41.118z M89.513,49.998c0,1.717-1.391,3.107-3.104,3.107  s-3.104-1.391-3.104-3.107c0-1.713,1.391-3.1,3.104-3.1S89.513,48.285,89.513,49.998z M77.68,52.109  c0,0.548-0.445,0.996-0.995,0.996h-4.329c-0.55,0-0.995-0.448-0.995-0.996c0-0.552,0.445-0.997,0.995-0.997h4.329  C77.234,51.112,77.68,51.558,77.68,52.109z M64.518,48.89h-4.329c-0.55,0-0.995-0.447-0.995-0.995c0-0.551,0.445-0.997,0.995-0.997  h4.329c0.55,0,0.995,0.445,0.995,0.997C65.513,48.442,65.067,48.89,64.518,48.89z M65.513,52.109c0,0.548-0.445,0.996-0.995,0.996  h-4.329c-0.55,0-0.995-0.448-0.995-0.996c0-0.552,0.445-0.997,0.995-0.997h4.329C65.067,51.112,65.513,51.558,65.513,52.109z   M52.351,48.89h-4.329c-0.55,0-0.997-0.447-0.997-0.995c0-0.551,0.447-0.997,0.997-0.997h4.329c0.549,0,0.995,0.445,0.995,0.997  C53.346,48.442,52.899,48.89,52.351,48.89z M53.346,52.109c0,0.548-0.446,0.996-0.995,0.996h-4.329c-0.55,0-0.997-0.448-0.997-0.996  c0-0.552,0.447-0.997,0.997-0.997h4.329C52.899,51.112,53.346,51.558,53.346,52.109z M40.183,48.89h-4.329  c-0.549,0-0.994-0.447-0.994-0.995c0-0.551,0.445-0.997,0.994-0.997h4.329c0.55,0,0.995,0.445,0.995,0.997  C41.178,48.442,40.733,48.89,40.183,48.89z M41.178,52.109c0,0.548-0.445,0.996-0.995,0.996h-4.329  c-0.549,0-0.994-0.448-0.994-0.996c0-0.552,0.445-0.997,0.994-0.997h4.329C40.733,51.112,41.178,51.558,41.178,52.109z   M28.016,48.89h-4.329c-0.55,0-0.996-0.447-0.996-0.995c0-0.551,0.446-0.997,0.996-0.997h4.329c0.55,0,0.995,0.445,0.995,0.997  C29.011,48.442,28.565,48.89,28.016,48.89z M29.011,52.109c0,0.548-0.445,0.996-0.995,0.996h-4.329c-0.55,0-0.996-0.448-0.996-0.996  c0-0.552,0.446-0.997,0.996-0.997h4.329C28.565,51.112,29.011,51.558,29.011,52.109z M16.844,52.109  c0,0.548-0.446,0.996-0.996,0.996H11.52c-0.551,0-0.996-0.448-0.996-0.996c0-0.552,0.445-0.997,0.996-0.997h4.329  C16.398,51.112,16.844,51.558,16.844,52.109z M92.021,58.884H7.978c-1.686,0-3.134-1.021-3.763-2.479h91.568  C95.156,57.862,93.708,58.884,92.021,58.884z"/>
</svg>